<mxfile host="app.diagrams.net" agent="Mozilla/5.0 (Macintosh; Intel Mac OS X 10_15_7) AppleWebKit/537.36 (KHTML, like Gecko) Chrome/128.0.0.0 Safari/537.36" version="24.7.12">
  <diagram name="Page-1" id="2npgx7gagM0gM3NTuDO_">
    <mxGraphModel dx="1244" dy="671" grid="1" gridSize="10" guides="1" tooltips="1" connect="1" arrows="1" fold="1" page="1" pageScale="1" pageWidth="850" pageHeight="1100" math="0" shadow="0">
      <root>
        <mxCell id="0" />
        <mxCell id="1" parent="0" />
        <mxCell id="J55CTmWFq1Fjj-wzBngl-1" value="" style="rounded=1;whiteSpace=wrap;html=1;" vertex="1" parent="1">
          <mxGeometry x="150" y="210" width="240" height="160" as="geometry" />
        </mxCell>
        <mxCell id="J55CTmWFq1Fjj-wzBngl-2" value="" style="rounded=1;whiteSpace=wrap;html=1;" vertex="1" parent="1">
          <mxGeometry x="500" y="210" width="200" height="160" as="geometry" />
        </mxCell>
        <mxCell id="J55CTmWFq1Fjj-wzBngl-5" style="edgeStyle=orthogonalEdgeStyle;rounded=0;orthogonalLoop=1;jettySize=auto;html=1;exitX=1;exitY=0.5;exitDx=0;exitDy=0;entryX=0;entryY=0.5;entryDx=0;entryDy=0;" edge="1" parent="1" source="J55CTmWFq1Fjj-wzBngl-3" target="J55CTmWFq1Fjj-wzBngl-4">
          <mxGeometry relative="1" as="geometry">
            <Array as="points">
              <mxPoint x="300" y="315" />
              <mxPoint x="300" y="315" />
            </Array>
          </mxGeometry>
        </mxCell>
        <mxCell id="J55CTmWFq1Fjj-wzBngl-3" value="Service 1&amp;nbsp;&lt;div&gt;(HTTP 1)&lt;/div&gt;" style="rounded=0;whiteSpace=wrap;html=1;" vertex="1" parent="1">
          <mxGeometry x="160" y="230" width="120" height="60" as="geometry" />
        </mxCell>
        <mxCell id="J55CTmWFq1Fjj-wzBngl-6" style="edgeStyle=orthogonalEdgeStyle;rounded=0;orthogonalLoop=1;jettySize=auto;html=1;exitX=1;exitY=0.5;exitDx=0;exitDy=0;entryX=0;entryY=0.5;entryDx=0;entryDy=0;" edge="1" parent="1" source="J55CTmWFq1Fjj-wzBngl-4" target="J55CTmWFq1Fjj-wzBngl-8">
          <mxGeometry relative="1" as="geometry" />
        </mxCell>
        <mxCell id="J55CTmWFq1Fjj-wzBngl-4" value="Sidecar&amp;nbsp;&lt;div&gt;(HTTP1 to HTTP 3)&lt;/div&gt;" style="ellipse;whiteSpace=wrap;html=1;aspect=fixed;" vertex="1" parent="1">
          <mxGeometry x="310" y="280" width="70" height="70" as="geometry" />
        </mxCell>
        <mxCell id="J55CTmWFq1Fjj-wzBngl-10" style="edgeStyle=orthogonalEdgeStyle;rounded=0;orthogonalLoop=1;jettySize=auto;html=1;exitX=0.5;exitY=1;exitDx=0;exitDy=0;entryX=1;entryY=0.5;entryDx=0;entryDy=0;" edge="1" parent="1" source="J55CTmWFq1Fjj-wzBngl-8" target="J55CTmWFq1Fjj-wzBngl-9">
          <mxGeometry relative="1" as="geometry" />
        </mxCell>
        <mxCell id="J55CTmWFq1Fjj-wzBngl-8" value="Service 2&amp;nbsp;&lt;div&gt;(HTTP 3)&lt;/div&gt;" style="rounded=0;whiteSpace=wrap;html=1;" vertex="1" parent="1">
          <mxGeometry x="560" y="225" width="120" height="60" as="geometry" />
        </mxCell>
        <mxCell id="J55CTmWFq1Fjj-wzBngl-11" style="edgeStyle=orthogonalEdgeStyle;rounded=0;orthogonalLoop=1;jettySize=auto;html=1;exitX=0.5;exitY=1;exitDx=0;exitDy=0;entryX=0.5;entryY=1;entryDx=0;entryDy=0;" edge="1" parent="1" source="J55CTmWFq1Fjj-wzBngl-9" target="J55CTmWFq1Fjj-wzBngl-3">
          <mxGeometry relative="1" as="geometry">
            <Array as="points">
              <mxPoint x="220" y="360" />
            </Array>
          </mxGeometry>
        </mxCell>
        <mxCell id="J55CTmWFq1Fjj-wzBngl-9" value="Sidecar&amp;nbsp;&lt;div&gt;(HTTP 3 to HTTP 1)&lt;/div&gt;" style="ellipse;whiteSpace=wrap;html=1;aspect=fixed;" vertex="1" parent="1">
          <mxGeometry x="510" y="290" width="70" height="70" as="geometry" />
        </mxCell>
        <mxCell id="J55CTmWFq1Fjj-wzBngl-12" value="&lt;font style=&quot;font-size: 20px;&quot;&gt;Sidecar Pattern&lt;/font&gt;" style="text;html=1;align=center;verticalAlign=middle;whiteSpace=wrap;rounded=0;" vertex="1" parent="1">
          <mxGeometry x="290" y="150" width="300" height="50" as="geometry" />
        </mxCell>
      </root>
    </mxGraphModel>
  </diagram>
</mxfile>
